<svg xmlns="http://www.w3.org/2000/svg" width="24" height="24" fill="none" viewBox="0 0 24 24">
  <path fill="#000" d="M15.5 11c2.5 0 4.5 2 4.5 4.5 0 .88-.25 1.71-.69 2.4l3.08 3.1L21 22.39l-3.12-3.07c-.69.43-1.51.68-2.38.68-2.5 0-4.5-2-4.5-4.5s2-4.5 4.5-4.5Zm0 2a2.5 2.5 0 1 0 0 5 2.5 2.5 0 0 0 0-5ZM14 5.11 8 3v11.89l1 .35v.26c0 .64.09 1.26.26 1.84L8 16.9l-5.34 2.07-.16.03a.5.5 0 0 1-.5-.5V3.38c0-.23.15-.41.36-.48L8 1l6 2.1L19.34 1h.16a.5.5 0 0 1 .5.5v9.31A6.48 6.48 0 0 0 15.5 9c-.5 0-1 .06-1.5.17V5.11Z"/>
</svg>
